<svg xmlns="http://www.w3.org/2000/svg" width="58" height="58" viewBox="0 0 58 58" fill="none">
  <rect opacity="0.3" x="0.5" y="0.783081" width="57" height="57" rx="5" fill="#C9B2FF"></rect>
  <path d="M28.9868 40.39C27.7168 40.39 26.5768 40.095 25.5668 39.505C24.5668 38.915 23.7768 38.125 23.1968 37.135C22.6168 36.145 22.3268 35.045 22.3268 33.835H25.4468C25.4468 34.465 25.5968 35.04 25.8968 35.56C26.1968 36.08 26.6118 36.495 27.1418 36.805C27.6718 37.115 28.2868 37.27 28.9868 37.27C29.6168 37.27 30.2018 37.115 30.7418 36.805C31.2818 36.495 31.7168 36.08 32.0468 35.56C32.3768 35.04 32.5418 34.465 32.5418 33.835C32.5418 33.035 32.3318 32.365 31.9118 31.825C31.4918 31.285 30.9068 30.885 30.1568 30.625C29.4168 30.355 28.5618 30.22 27.5918 30.22V27.76C28.9118 27.76 29.9668 27.5 30.7568 26.98C31.5468 26.46 31.9418 25.685 31.9418 24.655C31.9418 24.115 31.7968 23.625 31.5068 23.185C31.2268 22.735 30.8518 22.38 30.3818 22.12C29.9218 21.85 29.4268 21.715 28.8968 21.715C28.3468 21.715 27.8168 21.85 27.3068 22.12C26.8068 22.38 26.3968 22.735 26.0768 23.185C25.7568 23.625 25.5968 24.115 25.5968 24.655H22.4768C22.4768 23.825 22.6468 23.045 22.9868 22.315C23.3368 21.575 23.8068 20.93 24.3968 20.38C24.9968 19.82 25.6768 19.385 26.4368 19.075C27.2068 18.755 28.0118 18.595 28.8518 18.595C29.9518 18.595 30.9718 18.87 31.9118 19.42C32.8618 19.96 33.6218 20.69 34.1918 21.61C34.7718 22.52 35.0618 23.535 35.0618 24.655C35.0618 25.545 34.8418 26.39 34.4018 27.19C33.9718 27.98 33.3718 28.54 32.6018 28.87C33.2718 29.11 33.8318 29.49 34.2818 30.01C34.7418 30.52 35.0868 31.11 35.3168 31.78C35.5468 32.44 35.6618 33.125 35.6618 33.835C35.6618 35.035 35.3568 36.135 34.7468 37.135C34.1368 38.125 33.3218 38.915 32.3018 39.505C31.2918 40.095 30.1868 40.39 28.9868 40.39Z" fill="#1D1D1C"></path>
</svg>