<svg xmlns="http://www.w3.org/2000/svg" width="58" height="58" viewBox="0 0 58 58" fill="none">
  <rect opacity="0.3" x="0.5" y="0.783081" width="57" height="57" rx="5" fill="#2AD884"></rect>
  <path d="M22.2771 40V37.225C22.9871 36.635 23.8021 35.95 24.7221 35.17C25.6421 34.38 26.5771 33.545 27.5271 32.665C28.4771 31.775 29.3521 30.89 30.1521 30.01C30.9521 29.12 31.5971 28.28 32.0871 27.49C32.5871 26.69 32.8371 25.995 32.8371 25.405C32.8371 24.735 32.6721 24.125 32.3421 23.575C32.0221 23.015 31.5871 22.57 31.0371 22.24C30.4871 21.9 29.8771 21.73 29.2071 21.73C28.5371 21.73 27.9221 21.9 27.3621 22.24C26.8121 22.57 26.3671 23.015 26.0271 23.575C25.6971 24.125 25.5321 24.735 25.5321 25.405H22.4121C22.4121 24.135 22.7221 22.99 23.3421 21.97C23.9721 20.94 24.7971 20.125 25.8171 19.525C26.8471 18.915 27.9771 18.61 29.2071 18.61C30.4471 18.61 31.5771 18.915 32.5971 19.525C33.6171 20.135 34.4321 20.955 35.0421 21.985C35.6521 23.005 35.9571 24.145 35.9571 25.405C35.9571 26.105 35.8121 26.825 35.5221 27.565C35.2321 28.305 34.8271 29.06 34.3071 29.83C33.7971 30.6 33.2021 31.38 32.5221 32.17C31.8421 32.96 31.1121 33.75 30.3321 34.54C29.5521 35.33 28.7571 36.11 27.9471 36.88H36.1371V40H22.2771Z" fill="#1D1D1C"></path>
</svg>